<?xml version="1.0" standalone="no"?>
<!DOCTYPE svg PUBLIC "-//W3C//DTD SVG 20010904//EN"
 "http://www.w3.org/TR/2001/REC-SVG-20010904/DTD/svg10.dtd">
<svg version="1.0" xmlns="http://www.w3.org/2000/svg"
 width="100.000000pt" height="100.000000pt" viewBox="0 0 100.000000 100.000000"
 preserveAspectRatio="xMidYMid meet">
<metadata>
Created by potrace 1.13, written by Peter Selinger 2001-2015
</metadata>
<g transform="translate(0.000000,100.000000) scale(0.100000,-0.100000)"
fill="#000000" stroke="none">
<path d="M148 790 c12 -5 23 -11 24 -12 1 -2 4 -99 7 -216 l6 -214 27 22 28
21 2 187 3 187 29 3 c85 10 166 -63 187 -170 9 -45 15 -58 27 -53 8 3 34 10
58 16 l44 11 0 94 c0 81 3 97 20 114 20 20 20 20 -57 19 -43 -1 -69 -4 -58 -6
30 -8 35 -21 35 -93 l0 -65 -24 50 c-45 96 -88 115 -258 114 -84 0 -116 -3
-100 -9z"/>
<path d="M580 555 c-30 -8 -73 -21 -95 -30 -101 -43 -257 -155 -344 -250 l-43
-47 33 -34 c18 -18 34 -33 35 -31 1 1 17 22 36 46 l33 43 75 2 c60 1 83 6 113
25 39 24 75 72 95 126 9 27 10 22 11 -40 1 -73 -4 -88 -29 -98 -8 -3 21 -5 65
-6 54 0 73 3 59 9 -13 5 -24 21 -28 40 -9 47 -7 210 2 210 5 0 16 -16 26 -36
29 -62 117 -194 139 -209 12 -9 43 -15 72 -15 l50 0 -30 19 c-40 24 -52 39
-129 156 -43 65 -62 103 -56 109 6 6 58 10 117 10 59 0 97 3 83 7 -43 12 -233
8 -290 -6z"/>
</g>
</svg>
